<svg width="13" height="14" viewBox="0 0 13 14" fill="none" xmlns="http://www.w3.org/2000/svg">
<path d="M7.89529 7L12.1953 2.71C12.3836 2.5217 12.4894 2.2663 12.4894 2C12.4894 1.7337 12.3836 1.4783 12.1953 1.29C12.007 1.1017 11.7516 0.995908 11.4853 0.995908C11.219 0.995908 10.9636 1.1017 10.7753 1.29L6.48529 5.59L2.19529 1.29C2.00699 1.1017 1.75159 0.995908 1.48529 0.995908C1.21899 0.995908 0.963594 1.1017 0.77529 1.29C0.586987 1.4783 0.481199 1.7337 0.481199 2C0.481199 2.2663 0.586987 2.5217 0.77529 2.71L5.07529 7L0.77529 11.29C0.681562 11.383 0.607168 11.4936 0.556399 11.6154C0.505631 11.7373 0.479492 11.868 0.479492 12C0.479492 12.132 0.505631 12.2627 0.556399 12.3846C0.607168 12.5064 0.681562 12.617 0.77529 12.71C0.868253 12.8037 0.978854 12.8781 1.10071 12.9289C1.22257 12.9797 1.35328 13.0058 1.48529 13.0058C1.6173 13.0058 1.74801 12.9797 1.86987 12.9289C1.99173 12.8781 2.10233 12.8037 2.19529 12.71L6.48529 8.41L10.7753 12.71C10.8683 12.8037 10.9789 12.8781 11.1007 12.9289C11.2226 12.9797 11.3533 13.0058 11.4853 13.0058C11.6173 13.0058 11.748 12.9797 11.8699 12.9289C11.9917 12.8781 12.1023 12.8037 12.1953 12.71C12.289 12.617 12.3634 12.5064 12.4142 12.3846C12.465 12.2627 12.4911 12.132 12.4911 12C12.4911 11.868 12.465 11.7373 12.4142 11.6154C12.3634 11.4936 12.289 11.383 12.1953 11.29L7.89529 7Z" fill="#231F20"/>
</svg>
