<svg width="40" height="39" viewBox="0 0 40 39" fill="none" xmlns="http://www.w3.org/2000/svg">
<path d="M20 0C8.95097 0 0 8.72845 0 19.5C0 30.2715 8.95226 39 20 39C31.049 39 40 30.2715 40 19.5C40 8.72845 31.0477 0 20 0ZM29.8232 13.3594L26.5406 28.4411C26.2981 29.5104 25.6452 29.7696 24.7342 29.2664L19.7342 25.6733L17.3226 27.9378C17.0568 28.197 16.831 28.4172 16.3148 28.4172L16.6697 23.4554L25.9355 15.293C26.3394 14.9471 25.8465 14.7508 25.3135 15.0968L13.8619 22.1256L8.92645 20.6235C7.85419 20.2938 7.82968 19.578 9.15226 19.0748L28.4348 11.8245C29.3303 11.51 30.1123 12.0372 29.8219 13.3581L29.8232 13.3594Z" fill="white" fill-opacity="0.5"/>
</svg>
