<svg width="40" height="40" viewBox="0 0 40 40" fill="none" xmlns="http://www.w3.org/2000/svg">
<path d="M19.9997 0C8.95425 0 0 8.95444 0 19.9997C0 31.0445 8.95425 40 19.9997 40C31.0451 40 40 31.0449 40 19.9997C39.9997 8.95444 31.0451 0 19.9997 0ZM26.8299 12.7933C26.8299 12.9842 26.6753 13.1391 26.4841 13.1391H21.6153V15.7559H26.4837C26.675 15.7559 26.8295 15.9108 26.8295 16.1017V20.9697C26.8295 21.1609 26.675 21.3155 26.4837 21.3155H21.9611V31.9983C21.9611 32.1895 21.8065 32.3441 21.6153 32.3441H17.0142C16.823 32.3441 16.6684 32.1895 16.6684 31.9983V21.3158H13.5156C13.3243 21.3158 13.1698 21.1612 13.1698 20.97V16.102C13.1698 15.9111 13.3243 15.7562 13.5156 15.7562H16.6684V13.7823C16.6684 13.754 16.6719 13.7266 16.6781 13.7004C16.6808 10.8886 17.2822 7.67182 21.8889 7.6573C21.8989 7.65661 21.9096 7.65592 21.92 7.65592H26.4837C26.675 7.65592 26.8295 7.81084 26.8295 8.00173V12.7933H26.8299Z" fill="white" fill-opacity="0.5"/>
</svg>
