<svg width="40" height="40" viewBox="0 0 40 40" fill="none" xmlns="http://www.w3.org/2000/svg">
<path fill-rule="evenodd" clip-rule="evenodd" d="M20 40C31.0457 40 40 31.0457 40 20C40 8.9543 31.0457 0 20 0C8.9543 0 0 8.9543 0 20C0 31.0457 8.9543 40 20 40ZM22.6438 21.7667C22.9932 21.2438 23.1797 20.629 23.1797 20.0001C23.1787 19.1571 22.8434 18.3489 22.2473 17.7528C21.6512 17.1567 20.8429 16.8214 19.9999 16.8204C19.371 16.8204 18.7562 17.0069 18.2333 17.3563C17.7104 17.7057 17.3029 18.2023 17.0622 18.7833C16.8215 19.3643 16.7586 20.0037 16.8813 20.6205C17.004 21.2373 17.3068 21.8039 17.7515 22.2486C18.1962 22.6933 18.7628 22.9961 19.3796 23.1188C19.9964 23.2415 20.6357 23.1785 21.2167 22.9378C21.7978 22.6972 22.2944 22.2896 22.6438 21.7667ZM29.9366 24.3723V15.628C29.935 14.1527 29.3482 12.7383 28.305 11.6951C27.2618 10.6519 25.8474 10.0651 24.3721 10.0634H15.6278C14.1525 10.0651 12.7381 10.6519 11.6949 11.6951C10.6517 12.7383 10.0649 14.1527 10.0632 15.628V24.3723C10.0649 25.8476 10.6517 27.262 11.6949 28.3052C12.7381 29.3484 14.1525 29.9352 15.6278 29.9369H24.3721C25.8474 29.9352 27.2618 29.3484 28.305 28.3052C29.3482 27.262 29.935 25.8476 29.9366 24.3723ZM23.9657 17.3503C24.4898 18.1346 24.7695 19.0568 24.7695 20.0001C24.7681 21.2647 24.2651 22.477 23.371 23.3712C22.4768 24.2654 21.2645 24.7683 19.9999 24.7698C19.0566 24.7698 18.1344 24.49 17.35 23.9659C16.5657 23.4418 15.9544 22.6969 15.5934 21.8254C15.2324 20.9539 15.1379 19.9948 15.3219 19.0696C15.506 18.1444 15.9602 17.2945 16.6273 16.6275C17.2943 15.9605 18.1442 15.5062 19.0694 15.3222C19.9946 15.1381 20.9536 15.2326 21.8252 15.5936C22.6967 15.9546 23.4416 16.5659 23.9657 17.3503ZM26.1585 14.1706C26.2895 14.3667 26.3594 14.5972 26.3594 14.833C26.3594 15.1493 26.2338 15.4526 26.0102 15.6762C25.7865 15.8998 25.4833 16.0254 25.167 16.0254C24.9312 16.0254 24.7006 15.9555 24.5045 15.8245C24.3085 15.6935 24.1556 15.5072 24.0654 15.2894C23.9751 15.0715 23.9515 14.8317 23.9975 14.6004C24.0435 14.3691 24.1571 14.1566 24.3238 13.9899C24.4906 13.8231 24.7031 13.7096 24.9344 13.6635C25.1657 13.6175 25.4054 13.6412 25.6233 13.7314C25.8412 13.8217 26.0274 13.9745 26.1585 14.1706Z" fill="white" fill-opacity="0.5"/>
</svg>
